<svg width="1305" height="1307" viewBox="0 0 1305 1307" fill="none" xmlns="http://www.w3.org/2000/svg">
<g filter="url(#filter0_f_64599_149268)">
<circle cx="652" cy="654" r="420" fill="#341361"/>
</g>
<g filter="url(#filter1_f_64599_149268)">
<circle cx="652" cy="654" r="175" fill="#EEFA13"/>
</g>
<g filter="url(#filter2_f_64599_149268)">
<circle cx="652" cy="654" r="105" fill="#FFB904"/>
</g>
<g filter="url(#filter3_f_64599_149268)">
<path d="M652 459L655.565 554.677C657.074 595.186 700.397 620.199 736.234 601.251L820.875 556.5L739.799 607.426C705.471 628.987 705.471 679.013 739.799 700.574L820.875 751.5L736.234 706.749C700.397 687.801 657.074 712.814 655.565 753.323L652 849L648.435 753.323C646.926 712.814 603.603 687.801 567.766 706.749L483.125 751.5L564.201 700.574C598.529 679.013 598.529 628.987 564.201 607.426L483.125 556.5L567.766 601.251C603.603 620.199 646.926 595.186 648.435 554.677L652 459Z" fill="#FFDE6A"/>
</g>
<ellipse cx="570.189" cy="515.952" rx="5" ry="110" transform="rotate(-30 570.189 515.952)" fill="url(#paint0_radial_64599_149268)"/>
<ellipse cx="730.189" cy="793.08" rx="5" ry="110" transform="rotate(-30 730.189 793.08)" fill="url(#paint1_radial_64599_149268)"/>
<ellipse cx="491.812" cy="653.918" rx="5" ry="110" transform="rotate(-90 491.812 653.918)" fill="url(#paint2_radial_64599_149268)"/>
<ellipse cx="811.812" cy="653.918" rx="5" ry="110" transform="rotate(-90 811.812 653.918)" fill="url(#paint3_radial_64599_149268)"/>
<ellipse cx="730.189" cy="510.952" rx="5" ry="110" transform="rotate(30 730.189 510.952)" fill="url(#paint4_radial_64599_149268)"/>
<ellipse cx="570.189" cy="788.08" rx="5" ry="110" transform="rotate(30 570.189 788.08)" fill="url(#paint5_radial_64599_149268)"/>
<g filter="url(#filter4_f_64599_149268)">
<path d="M435.25 420.845C448.855 421.064 459.07 426.414 471.778 430.567C485.2 434.953 499.149 442.715 510.667 450.984C527.882 463.343 530.859 488.932 535.25 507.65C539.405 525.362 548.323 541.171 552.75 558.761C555.498 569.682 557.475 580.751 564.903 589.664C575.275 602.111 595.483 614.926 610.875 603.136C617.53 598.039 621.788 589.392 630.25 587.65C638.799 585.89 649.139 576.8 655.944 572.095C678.368 556.589 705.675 549.107 732.75 549.595C746.866 549.849 758.731 555.416 770.389 563.067C778.291 568.253 789.226 575.63 792.264 585.081C798.628 604.881 804.483 623.568 813.375 642.511C816.671 649.533 820.809 653.367 826.361 658.414C833.951 665.314 825.652 667.799 819.278 671.123C805.661 678.222 790.773 685.41 776.083 689.873C750.927 697.515 724.906 700.796 699.278 706.192C681.773 709.877 666.655 719.483 649.278 723.345C642.743 724.797 635.416 727.055 629.278 729.873C621.514 733.436 614.086 741.355 607.889 747.164C601.573 753.085 600.359 761.442 600.25 769.734C600.134 778.529 598.798 788.824 601.083 797.373C603.663 807.021 609.972 817.192 615.597 825.428C625.974 840.623 646.012 850.821 661.639 859.734C672.776 866.085 684.616 865.323 696.153 869.873C715.936 877.674 734.822 885.915 755.181 892.234C765.738 895.51 775.852 900.078 786.5 903.067C797.505 906.156 808.612 907.68 819.417 911.539C829.098 914.997 839.936 917.574 850.042 919.595C851.22 919.83 852.909 921.305 851.292 920.011C841.637 912.288 835.19 901.74 827.75 892.095" stroke="url(#paint6_radial_64599_149268)" stroke-width="20" stroke-linecap="round"/>
<path d="M415.25 660.845C420.484 656.013 426.632 652.371 432.472 648.345C442.678 641.309 450.903 633.04 462.611 628.345C486.025 618.956 512.065 600.402 538.306 602.095C547.777 602.706 558.256 609.979 565.806 615.012C579.772 624.323 591.568 636.123 604.833 646.262C616.609 655.262 629.481 663.051 641.639 671.539C652.024 678.79 661.224 686.885 671.847 693.9C686.06 703.286 700.717 712.632 717.125 717.581C734.726 722.889 752.78 722.095 770.944 722.095C789.668 722.095 803.741 715.081 819.486 705.984C827.379 701.423 831.956 695.726 836.639 687.859C844.862 674.044 852.899 659.999 860.25 645.706C864.949 636.569 868.555 629.319 870.528 619.039C872.689 607.78 873.533 595.765 876.778 584.734C879.406 575.799 884.871 568.446 886.5 559.039C887.524 553.131 888.194 547.164 889.278 541.262C891.486 529.239 890.25 516.356 890.25 504.178C890.25 499.232 890.775 493.943 889.972 489.039C888.783 481.772 883.089 476.899 878.514 471.539C869.3 460.746 857.12 452.277 849.625 440.22C843.826 430.89 844.354 423.335 849.069 412.998C853.994 402.202 864.276 393.25 875.319 389.109C877.819 388.171 887.499 385.342 889 388.345" stroke="url(#paint7_radial_64599_149268)" stroke-width="20" stroke-linecap="round"/>
<path d="M744 405.845C727.218 407.243 719 424.162 719 439.178C719 455.051 724.358 465.7 732.403 479.109C740.046 491.847 746.409 505.627 752.75 519.039C767.091 549.371 774.941 581.086 783.514 613.345C791.295 642.621 800.622 671.53 812.056 699.595C820.207 719.602 833.689 743.332 831.431 765.914C830.779 772.427 823.414 772.967 818.167 774.039C808.654 775.983 799.057 778.57 789.486 780.081C781.1 781.405 772.459 780.755 764 780.845C743.887 781.059 723.8 784.206 703.722 785.289C665.18 787.369 626.425 786.331 587.889 788.9C552.92 791.232 518.368 792.095 483.306 792.095C472.477 792.095 466.339 777.109 462.819 768.97C458.998 760.132 454.841 749.887 455.319 740.081C455.865 728.898 464.236 720.053 471.361 712.095C484.25 697.7 498.141 683.892 516.153 676.192C547.232 662.906 583.25 666.223 615.528 656.539C626.195 653.339 632.71 644.859 636.778 635.011C643.903 617.761 649.918 600.292 652.194 581.678C653.97 567.159 652.677 551.94 652.125 537.373C651.375 517.567 653.553 496.405 646.361 477.581C642.516 467.516 639.593 455.889 634.139 446.539C629.072 437.854 622.775 429.925 617.264 421.539C613.07 415.157 607.672 412.235 601.361 407.928C594.841 403.479 595.945 405.289 600.25 409.595" stroke="url(#paint8_radial_64599_149268)" stroke-width="20" stroke-linecap="round"/>
<path d="M379 520.845C425.389 544.898 474.97 557.527 525.528 569.595C601.29 587.678 665.837 629.257 727.472 675.567C751.447 693.58 775.046 711.738 788.514 739.109C797.125 756.608 808.009 776.232 823.722 788.345C837.39 798.88 853.589 805.335 870.806 807.581C882.362 809.088 903.637 811.714 913.167 803.623C916.645 800.669 931.873 787.119 924.417 799.386C906.512 828.842 877.412 847.489 855.25 873.345" stroke="url(#paint9_radial_64599_149268)" stroke-width="20" stroke-linecap="round"/>
</g>
<g style="mix-blend-mode:color-dodge">
<circle cx="525" cy="549" r="5" fill="#FCE306" fill-opacity="0.7"/>
<circle cx="630" cy="474" r="5" fill="#FCE306" fill-opacity="0.7"/>
<circle cx="675" cy="579" r="5" fill="#FCE306" fill-opacity="0.7"/>
<circle cx="745" cy="469" r="5" fill="#FCE306" fill-opacity="0.7"/>
<circle cx="855" cy="519" r="5" fill="#FCE306" fill-opacity="0.7"/>
<circle cx="805" cy="569" r="5" fill="#FCE306" fill-opacity="0.7"/>
<circle cx="795" cy="614" r="5" fill="#FCE306" fill-opacity="0.7"/>
<circle cx="885" cy="674" r="5" fill="#FCE306" fill-opacity="0.7"/>
<circle cx="845" cy="684" r="5" fill="#FCE306" fill-opacity="0.7"/>
<circle cx="810" cy="659" r="5" fill="#FCE306" fill-opacity="0.7"/>
<circle cx="755" cy="659" r="5" fill="#FCE306" fill-opacity="0.7"/>
<circle cx="700" cy="624" r="5" fill="#FCE306" fill-opacity="0.7"/>
<circle cx="610" cy="704" r="5" fill="#FCE306" fill-opacity="0.7"/>
<circle cx="545" cy="749" r="5" fill="#FCE306" fill-opacity="0.7"/>
<circle cx="585" cy="804" r="5" fill="#FCE306" fill-opacity="0.7"/>
<circle cx="550" cy="849" r="5" fill="#FCE306" fill-opacity="0.7"/>
<circle cx="770" cy="819" r="5" fill="#FCE306" fill-opacity="0.7"/>
<circle cx="620" cy="759" r="5" fill="#FCE306" fill-opacity="0.7"/>
<circle cx="485" cy="709" r="5" fill="#FCE306" fill-opacity="0.7"/>
<circle cx="470" cy="624" r="5" fill="#FCE306" fill-opacity="0.7"/>
<circle cx="460" cy="584" r="5" fill="#FCE306" fill-opacity="0.7"/>
<circle cx="755" cy="544" r="5" fill="#FCE306" fill-opacity="0.7"/>
<circle cx="680" cy="724" r="5" fill="#FCE306" fill-opacity="0.7"/>
<circle cx="650" cy="644" r="5" fill="#FCE306" fill-opacity="0.7"/>
<circle cx="507.5" cy="816.5" r="2.5" fill="#FCE306" fill-opacity="0.7"/>
<circle cx="517.5" cy="736.5" r="2.5" fill="#FCE306" fill-opacity="0.7"/>
<circle cx="567.5" cy="691.5" r="2.5" fill="#FCE306" fill-opacity="0.7"/>
<circle cx="617.5" cy="646.5" r="2.5" fill="#FCE306" fill-opacity="0.7"/>
<circle cx="632.5" cy="566.5" r="2.5" fill="#FCE306" fill-opacity="0.7"/>
<circle cx="747.5" cy="616.5" r="2.5" fill="#FCE306" fill-opacity="0.7"/>
<circle cx="792.5" cy="526.5" r="2.5" fill="#FCE306" fill-opacity="0.7"/>
<circle cx="722.5" cy="496.5" r="2.5" fill="#FCE306" fill-opacity="0.7"/>
<circle cx="652.5" cy="466.5" r="2.5" fill="#FCE306" fill-opacity="0.7"/>
<circle cx="582.5" cy="501.5" r="2.5" fill="#FCE306" fill-opacity="0.7"/>
<circle cx="512.5" cy="536.5" r="2.5" fill="#FCE306" fill-opacity="0.7"/>
<circle cx="542.5" cy="606.5" r="2.5" fill="#FCE306" fill-opacity="0.7"/>
<circle cx="572.5" cy="676.5" r="2.5" fill="#FCE306" fill-opacity="0.7"/>
<circle cx="627.5" cy="731.5" r="2.5" fill="#FCE306" fill-opacity="0.7"/>
<circle cx="682.5" cy="786.5" r="2.5" fill="#FCE306" fill-opacity="0.7"/>
<circle cx="747.5" cy="811.5" r="2.5" fill="#FCE306" fill-opacity="0.7"/>
<circle cx="787.5" cy="781.5" r="2.5" fill="#FCE306" fill-opacity="0.7"/>
<circle cx="837.5" cy="741.5" r="2.5" fill="#FCE306" fill-opacity="0.7"/>
<circle cx="722.5" cy="696.5" r="2.5" fill="#FCE306" fill-opacity="0.7"/>
<circle cx="607.5" cy="651.5" r="2.5" fill="#FCE306" fill-opacity="0.7"/>
<circle cx="642.5" cy="611.5" r="2.5" fill="#FCE306" fill-opacity="0.7"/>
<circle cx="682.5" cy="556.5" r="2.5" fill="#FCE306" fill-opacity="0.7"/>
<circle cx="752.5" cy="586.5" r="2.5" fill="#FCE306" fill-opacity="0.7"/>
<circle cx="782.5" cy="551.5" r="2.5" fill="#FCE306" fill-opacity="0.7"/>
<circle cx="807.5" cy="496.5" r="2.5" fill="#FCE306" fill-opacity="0.7"/>
<circle cx="607.5" cy="611.5" r="2.5" fill="#FCE306" fill-opacity="0.7"/>
<circle cx="642.5" cy="801.5" r="2.5" fill="#FCE306" fill-opacity="0.7"/>
<circle cx="617.5" cy="856.5" r="2.5" fill="#FCE306" fill-opacity="0.7"/>
<circle cx="742.5" cy="776.5" r="2.5" fill="#FCE306" fill-opacity="0.7"/>
<circle cx="862.5" cy="716.5" r="2.5" fill="#FCE306" fill-opacity="0.7"/>
<circle cx="787.5" cy="716.5" r="2.5" fill="#FCE306" fill-opacity="0.7"/>
<circle cx="652.5" cy="756.5" r="2.5" fill="#FCE306" fill-opacity="0.7"/>
<circle cx="652.5" cy="756.5" r="2.5" fill="#FCE306" fill-opacity="0.7"/>
<circle cx="507.5" cy="836.5" r="2.5" fill="#FCE306" fill-opacity="0.7"/>
<circle cx="797.5" cy="591.5" r="2.5" fill="#FFC804" fill-opacity="0.8"/>
<circle cx="822.5" cy="536.5" r="2.5" fill="#FFC804" fill-opacity="0.8"/>
<circle cx="837.5" cy="486.5" r="2.5" fill="#FFC804" fill-opacity="0.8"/>
<circle cx="842.5" cy="461.5" r="2.5" fill="#FFC804" fill-opacity="0.8"/>
<circle cx="787.5" cy="461.5" r="2.5" fill="#FFC804" fill-opacity="0.8"/>
<circle cx="722.5" cy="451.5" r="2.5" fill="#FFC804" fill-opacity="0.8"/>
<circle cx="602.5" cy="451.5" r="2.5" fill="#FFC804" fill-opacity="0.8"/>
<circle cx="502.5" cy="481.5" r="2.5" fill="#FFC804" fill-opacity="0.8"/>
<circle cx="432.5" cy="536.5" r="2.5" fill="#FFC804" fill-opacity="0.8"/>
<circle cx="417.5" cy="621.5" r="2.5" fill="#FFC804" fill-opacity="0.8"/>
<circle cx="462.5" cy="726.5" r="2.5" fill="#FFC804" fill-opacity="0.8"/>
<circle cx="537.5" cy="811.5" r="2.5" fill="#FFC804" fill-opacity="0.8"/>
<circle cx="567.5" cy="771.5" r="2.5" fill="#FFC804" fill-opacity="0.8"/>
<circle cx="557.5" cy="706.5" r="2.5" fill="#FFC804" fill-opacity="0.8"/>
<circle cx="512.5" cy="651.5" r="2.5" fill="#FFC804" fill-opacity="0.8"/>
<circle cx="692.5" cy="681.5" r="2.5" fill="#FFC804" fill-opacity="0.8"/>
<circle cx="727.5" cy="576.5" r="2.5" fill="#FFC804" fill-opacity="0.8"/>
<circle cx="652.5" cy="541.5" r="2.5" fill="#FFC804" fill-opacity="0.8"/>
<circle cx="562.5" cy="541.5" r="2.5" fill="#FFC804" fill-opacity="0.8"/>
<circle cx="567.5" cy="626.5" r="2.5" fill="#FFC804" fill-opacity="0.8"/>
<circle cx="782.5" cy="661.5" r="2.5" fill="#FFC804" fill-opacity="0.8"/>
</g>
<g style="mix-blend-mode:hard-light">
<circle cx="5" cy="5" r="5" transform="matrix(-1 0 0 1 785 544)" fill="#FCE306" fill-opacity="0.7"/>
<circle cx="5" cy="5" r="5" transform="matrix(-1 0 0 1 765 484)" fill="#FCE306" fill-opacity="0.7"/>
<circle cx="5" cy="5" r="5" transform="matrix(-1 0 0 1 680 469)" fill="#FCE306" fill-opacity="0.7"/>
<circle cx="5" cy="5" r="5" transform="matrix(-1 0 0 1 615 459)" fill="#FCE306" fill-opacity="0.7"/>
<circle cx="5" cy="5" r="5" transform="matrix(-1 0 0 1 620 504)" fill="#FCE306" fill-opacity="0.7"/>
<circle cx="5" cy="5" r="5" transform="matrix(-1 0 0 1 635 574)" fill="#FCE306" fill-opacity="0.7"/>
<circle cx="5" cy="5" r="5" transform="matrix(-1 0 0 1 720 589)" fill="#FCE306" fill-opacity="0.7"/>
<circle cx="5" cy="5" r="5" transform="matrix(-1 0 0 1 760 659)" fill="#FCE306" fill-opacity="0.7"/>
<circle cx="5" cy="5" r="5" transform="matrix(-1 0 0 1 880 669)" fill="#FCE306" fill-opacity="0.7"/>
<circle cx="5" cy="5" r="5" transform="matrix(-1 0 0 1 800 599)" fill="#FCE306" fill-opacity="0.7"/>
<circle cx="5" cy="5" r="5" transform="matrix(-1 0 0 1 705 539)" fill="#FCE306" fill-opacity="0.7"/>
<circle cx="5" cy="5" r="5" transform="matrix(-1 0 0 1 545 494)" fill="#FCE306" fill-opacity="0.7"/>
<circle cx="5" cy="5" r="5" transform="matrix(-1 0 0 1 565 464)" fill="#FCE306" fill-opacity="0.7"/>
<circle cx="5" cy="5" r="5" transform="matrix(-1 0 0 1 455 514)" fill="#FCE306" fill-opacity="0.7"/>
<circle cx="5" cy="5" r="5" transform="matrix(-1 0 0 1 505 564)" fill="#FCE306" fill-opacity="0.7"/>
<circle cx="5" cy="5" r="5" transform="matrix(-1 0 0 1 515 609)" fill="#FCE306" fill-opacity="0.7"/>
<circle cx="5" cy="5" r="5" transform="matrix(-1 0 0 1 440 614)" fill="#FCE306" fill-opacity="0.7"/>
<circle cx="5" cy="5" r="5" transform="matrix(-1 0 0 1 425 669)" fill="#FCE306" fill-opacity="0.7"/>
<circle cx="5" cy="5" r="5" transform="matrix(-1 0 0 1 465 679)" fill="#FCE306" fill-opacity="0.7"/>
<circle cx="5" cy="5" r="5" transform="matrix(-1 0 0 1 500 654)" fill="#FCE306" fill-opacity="0.7"/>
<circle cx="5" cy="5" r="5" transform="matrix(-1 0 0 1 555 654)" fill="#FCE306" fill-opacity="0.7"/>
<circle cx="5" cy="5" r="5" transform="matrix(-1 0 0 1 610 619)" fill="#FCE306" fill-opacity="0.7"/>
<circle cx="5" cy="5" r="5" transform="matrix(-1 0 0 1 700 699)" fill="#FCE306" fill-opacity="0.7"/>
<circle cx="5" cy="5" r="5" transform="matrix(-1 0 0 1 765 744)" fill="#FCE306" fill-opacity="0.7"/>
<circle cx="5" cy="5" r="5" transform="matrix(-1 0 0 1 845 759)" fill="#FCE306" fill-opacity="0.7"/>
<circle cx="5" cy="5" r="5" transform="matrix(-1 0 0 1 725 799)" fill="#FCE306" fill-opacity="0.7"/>
<circle cx="5" cy="5" r="5" transform="matrix(-1 0 0 1 760 844)" fill="#FCE306" fill-opacity="0.7"/>
<circle cx="5" cy="5" r="5" transform="matrix(-1 0 0 1 625 834)" fill="#FCE306" fill-opacity="0.7"/>
<circle cx="5" cy="5" r="5" transform="matrix(-1 0 0 1 540 814)" fill="#FCE306" fill-opacity="0.7"/>
<circle cx="5" cy="5" r="5" transform="matrix(-1 0 0 1 615 784)" fill="#FCE306" fill-opacity="0.7"/>
<circle cx="5" cy="5" r="5" transform="matrix(-1 0 0 1 690 754)" fill="#FCE306" fill-opacity="0.7"/>
<circle cx="5" cy="5" r="5" transform="matrix(-1 0 0 1 575 724)" fill="#FCE306" fill-opacity="0.7"/>
<circle cx="5" cy="5" r="5" transform="matrix(-1 0 0 1 500 749)" fill="#FCE306" fill-opacity="0.7"/>
<circle cx="5" cy="5" r="5" transform="matrix(-1 0 0 1 430 734)" fill="#FCE306" fill-opacity="0.7"/>
<circle cx="5" cy="5" r="5" transform="matrix(-1 0 0 1 825 704)" fill="#FCE306" fill-opacity="0.7"/>
<circle cx="5" cy="5" r="5" transform="matrix(-1 0 0 1 840 619)" fill="#FCE306" fill-opacity="0.7"/>
<circle cx="5" cy="5" r="5" transform="matrix(-1 0 0 1 850 579)" fill="#FCE306" fill-opacity="0.7"/>
<circle cx="5" cy="5" r="5" transform="matrix(-1 0 0 1 555 539)" fill="#FCE306" fill-opacity="0.7"/>
<circle cx="5" cy="5" r="5" transform="matrix(-1 0 0 1 630 719)" fill="#FCE306" fill-opacity="0.7"/>
<circle cx="5" cy="5" r="5" transform="matrix(-1 0 0 1 660 639)" fill="#FCE306" fill-opacity="0.7"/>
<circle cx="2.5" cy="2.5" r="2.5" transform="matrix(-1 0 0 1 800 814)" fill="#FCE306" fill-opacity="0.7"/>
<circle cx="2.5" cy="2.5" r="2.5" transform="matrix(-1 0 0 1 810 774)" fill="#FCE306" fill-opacity="0.7"/>
<circle cx="2.5" cy="2.5" r="2.5" transform="matrix(-1 0 0 1 790 734)" fill="#FCE306" fill-opacity="0.7"/>
<circle cx="2.5" cy="2.5" r="2.5" transform="matrix(-1 0 0 1 740 689)" fill="#FCE306" fill-opacity="0.7"/>
<circle cx="2.5" cy="2.5" r="2.5" transform="matrix(-1 0 0 1 690 644)" fill="#FCE306" fill-opacity="0.7"/>
<circle cx="2.5" cy="2.5" r="2.5" transform="matrix(-1 0 0 1 675 564)" fill="#FCE306" fill-opacity="0.7"/>
<circle cx="2.5" cy="2.5" r="2.5" transform="matrix(-1 0 0 1 560 614)" fill="#FCE306" fill-opacity="0.7"/>
<circle cx="2.5" cy="2.5" r="2.5" transform="matrix(-1 0 0 1 515 524)" fill="#FCE306" fill-opacity="0.7"/>
<circle cx="2.5" cy="2.5" r="2.5" transform="matrix(-1 0 0 1 585 494)" fill="#FCE306" fill-opacity="0.7"/>
<circle cx="2.5" cy="2.5" r="2.5" transform="matrix(-1 0 0 1 655 464)" fill="#FCE306" fill-opacity="0.7"/>
<circle cx="2.5" cy="2.5" r="2.5" transform="matrix(-1 0 0 1 725 499)" fill="#FCE306" fill-opacity="0.7"/>
<circle cx="2.5" cy="2.5" r="2.5" transform="matrix(-1 0 0 1 795 534)" fill="#FCE306" fill-opacity="0.7"/>
<circle cx="2.5" cy="2.5" r="2.5" transform="matrix(-1 0 0 1 765 604)" fill="#FCE306" fill-opacity="0.7"/>
<circle cx="2.5" cy="2.5" r="2.5" transform="matrix(-1 0 0 1 735 674)" fill="#FCE306" fill-opacity="0.7"/>
<circle cx="2.5" cy="2.5" r="2.5" transform="matrix(-1 0 0 1 680 729)" fill="#FCE306" fill-opacity="0.7"/>
<circle cx="2.5" cy="2.5" r="2.5" transform="matrix(-1 0 0 1 625 784)" fill="#FCE306" fill-opacity="0.7"/>
<circle cx="2.5" cy="2.5" r="2.5" transform="matrix(-1 0 0 1 560 809)" fill="#FCE306" fill-opacity="0.7"/>
<circle cx="2.5" cy="2.5" r="2.5" transform="matrix(-1 0 0 1 520 779)" fill="#FCE306" fill-opacity="0.7"/>
<circle cx="2.5" cy="2.5" r="2.5" transform="matrix(-1 0 0 1 470 739)" fill="#FCE306" fill-opacity="0.7"/>
<circle cx="2.5" cy="2.5" r="2.5" transform="matrix(-1 0 0 1 585 694)" fill="#FCE306" fill-opacity="0.7"/>
<circle cx="2.5" cy="2.5" r="2.5" transform="matrix(-1 0 0 1 700 649)" fill="#FCE306" fill-opacity="0.7"/>
<circle cx="2.5" cy="2.5" r="2.5" transform="matrix(-1 0 0 1 665 609)" fill="#FCE306" fill-opacity="0.7"/>
<circle cx="2.5" cy="2.5" r="2.5" transform="matrix(-1 0 0 1 625 554)" fill="#FCE306" fill-opacity="0.7"/>
<circle cx="2.5" cy="2.5" r="2.5" transform="matrix(-1 0 0 1 555 584)" fill="#FCE306" fill-opacity="0.7"/>
<circle cx="2.5" cy="2.5" r="2.5" transform="matrix(-1 0 0 1 525 549)" fill="#FCE306" fill-opacity="0.7"/>
<circle cx="2.5" cy="2.5" r="2.5" transform="matrix(-1 0 0 1 500 494)" fill="#FCE306" fill-opacity="0.7"/>
<circle cx="2.5" cy="2.5" r="2.5" transform="matrix(-1 0 0 1 700 609)" fill="#FCE306" fill-opacity="0.7"/>
<circle cx="2.5" cy="2.5" r="2.5" transform="matrix(-1 0 0 1 665 799)" fill="#FCE306" fill-opacity="0.7"/>
<circle cx="2.5" cy="2.5" r="2.5" transform="matrix(-1 0 0 1 690 854)" fill="#FCE306" fill-opacity="0.7"/>
<circle cx="2.5" cy="2.5" r="2.5" transform="matrix(-1 0 0 1 565 774)" fill="#FCE306" fill-opacity="0.7"/>
<circle cx="2.5" cy="2.5" r="2.5" transform="matrix(-1 0 0 1 445 714)" fill="#FCE306" fill-opacity="0.7"/>
<circle cx="2.5" cy="2.5" r="2.5" transform="matrix(-1 0 0 1 520 714)" fill="#FCE306" fill-opacity="0.7"/>
<circle cx="2.5" cy="2.5" r="2.5" transform="matrix(-1 0 0 1 655 754)" fill="#FCE306" fill-opacity="0.7"/>
<circle cx="2.5" cy="2.5" r="2.5" transform="matrix(-1 0 0 1 655 754)" fill="#FCE306" fill-opacity="0.7"/>
<circle cx="2.5" cy="2.5" r="2.5" transform="matrix(-1 0 0 1 800 834)" fill="#FCE306" fill-opacity="0.7"/>
<circle cx="2.5" cy="2.5" r="2.5" transform="matrix(-1 0 0 1 510 589)" fill="#FFC804" fill-opacity="0.8"/>
<circle cx="2.5" cy="2.5" r="2.5" transform="matrix(-1 0 0 1 485 534)" fill="#FFC804" fill-opacity="0.8"/>
<circle cx="2.5" cy="2.5" r="2.5" transform="matrix(-1 0 0 1 470 484)" fill="#FFC804" fill-opacity="0.8"/>
<circle cx="2.5" cy="2.5" r="2.5" transform="matrix(-1 0 0 1 465 459)" fill="#FFC804" fill-opacity="0.8"/>
<circle cx="2.5" cy="2.5" r="2.5" transform="matrix(-1 0 0 1 520 459)" fill="#FFC804" fill-opacity="0.8"/>
<circle cx="2.5" cy="2.5" r="2.5" transform="matrix(-1 0 0 1 585 449)" fill="#FFC804" fill-opacity="0.8"/>
<circle cx="2.5" cy="2.5" r="2.5" transform="matrix(-1 0 0 1 705 449)" fill="#FFC804" fill-opacity="0.8"/>
<circle cx="2.5" cy="2.5" r="2.5" transform="matrix(-1 0 0 1 805 479)" fill="#FFC804" fill-opacity="0.8"/>
<circle cx="2.5" cy="2.5" r="2.5" transform="matrix(-1 0 0 1 875 534)" fill="#FFC804" fill-opacity="0.8"/>
<circle cx="2.5" cy="2.5" r="2.5" transform="matrix(-1 0 0 1 890 619)" fill="#FFC804" fill-opacity="0.8"/>
<circle cx="2.5" cy="2.5" r="2.5" transform="matrix(-1 0 0 1 845 724)" fill="#FFC804" fill-opacity="0.8"/>
<circle cx="2.5" cy="2.5" r="2.5" transform="matrix(-1 0 0 1 800 849)" fill="#FFC804" fill-opacity="0.8"/>
<circle cx="2.5" cy="2.5" r="2.5" transform="matrix(-1 0 0 1 770 809)" fill="#FFC804" fill-opacity="0.8"/>
<circle cx="2.5" cy="2.5" r="2.5" transform="matrix(-1 0 0 1 740 769)" fill="#FFC804" fill-opacity="0.8"/>
<circle cx="2.5" cy="2.5" r="2.5" transform="matrix(-1 0 0 1 750 704)" fill="#FFC804" fill-opacity="0.8"/>
<circle cx="2.5" cy="2.5" r="2.5" transform="matrix(-1 0 0 1 795 649)" fill="#FFC804" fill-opacity="0.8"/>
<circle cx="2.5" cy="2.5" r="2.5" transform="matrix(-1 0 0 1 615 679)" fill="#FFC804" fill-opacity="0.8"/>
<circle cx="2.5" cy="2.5" r="2.5" transform="matrix(-1 0 0 1 520 639)" fill="#FFC804" fill-opacity="0.8"/>
<circle cx="2.5" cy="2.5" r="2.5" transform="matrix(-1 0 0 1 580 574)" fill="#FFC804" fill-opacity="0.8"/>
<circle cx="2.5" cy="2.5" r="2.5" transform="matrix(-1 0 0 1 655 539)" fill="#FFC804" fill-opacity="0.8"/>
<circle cx="2.5" cy="2.5" r="2.5" transform="matrix(-1 0 0 1 745 539)" fill="#FFC804" fill-opacity="0.8"/>
<circle cx="2.5" cy="2.5" r="2.5" transform="matrix(-1 0 0 1 740 624)" fill="#FFC804" fill-opacity="0.8"/>
<circle cx="2.5" cy="2.5" r="2.5" transform="matrix(-1 0 0 1 635 649)" fill="#FFC804" fill-opacity="0.8"/>
<circle cx="2.5" cy="2.5" r="2.5" transform="matrix(-1 0 0 1 525 659)" fill="#FFC804" fill-opacity="0.8"/>
<circle cx="2.5" cy="2.5" r="2.5" transform="matrix(-1 0 0 1 515 674)" fill="#FFC804" fill-opacity="0.8"/>
</g>
<g filter="url(#filter5_if_64599_149268)">
<ellipse cx="516.207" cy="782.5" rx="167.5" ry="179.5" fill="white" fill-opacity="0.01"/>
</g>
<g filter="url(#filter6_f_64599_149268)">
<ellipse cx="641.207" cy="544.5" rx="237.5" ry="220.5" fill="url(#paint10_radial_64599_149268)"/>
</g>
<g filter="url(#filter7_f_64599_149268)">
<ellipse cx="545.396" cy="731.317" rx="146.244" ry="234.188" transform="rotate(138.992 545.396 731.317)" fill="url(#paint11_radial_64599_149268)"/>
</g>
<g filter="url(#filter8_f_64599_149268)">
<ellipse cx="826.072" cy="648.7" rx="142.5" ry="243.887" transform="rotate(15 826.072 648.7)" stroke="url(#paint12_linear_64599_149268)" stroke-width="10"/>
</g>
<g filter="url(#filter9_f_64599_149268)">
<g style="mix-blend-mode:screen">
<ellipse cx="607.206" cy="564.5" rx="197.5" ry="161.5" fill="#0DD3FF"/>
</g>
<g style="mix-blend-mode:screen">
<ellipse cx="726.207" cy="733" rx="197.5" ry="180" fill="#FF5B0D"/>
</g>
<g style="mix-blend-mode:overlay">
<circle cx="553.707" cy="767" r="140" fill="white"/>
</g>
</g>
<g style="mix-blend-mode:color-dodge">
<g style="mix-blend-mode:color-dodge" filter="url(#filter10_f_64599_149268)">
<ellipse cx="669.134" cy="482" rx="20" ry="110" fill="url(#paint13_radial_64599_149268)"/>
<ellipse cx="669.134" cy="802" rx="20" ry="110" fill="url(#paint14_radial_64599_149268)"/>
<ellipse cx="529.397" cy="569.32" rx="20" ry="110" transform="rotate(-60 529.397 569.32)" fill="url(#paint15_radial_64599_149268)"/>
<ellipse cx="806.525" cy="729.32" rx="20" ry="110" transform="rotate(-60 806.525 729.32)" fill="url(#paint16_radial_64599_149268)"/>
<ellipse cx="806.525" cy="569.32" rx="20" ry="110" transform="rotate(60 806.525 569.32)" fill="url(#paint17_radial_64599_149268)"/>
<ellipse cx="529.397" cy="729.32" rx="20" ry="110" transform="rotate(60 529.397 729.32)" fill="url(#paint18_radial_64599_149268)"/>
</g>
<g filter="url(#filter11_f_64599_149268)">
<path d="M943.309 485.728L750.228 607.006C715.901 628.568 715.901 678.593 750.228 700.155L943.309 821.433L741.739 714.859C705.902 695.912 662.579 720.924 661.07 761.434L652.58 989.285L644.091 761.434C642.581 720.924 599.258 695.912 563.421 714.859L361.852 821.433L554.932 700.155C589.26 678.593 589.26 628.568 554.932 607.006L361.852 485.728L563.421 592.302C599.258 611.25 642.581 586.237 644.091 545.728L652.58 317.876L661.07 545.728C662.579 586.237 705.902 611.25 741.739 592.302L943.309 485.728Z" fill="#FFDE6A"/>
</g>
</g>
<defs>
<filter id="filter0_f_64599_149268" x="12" y="14" width="1280" height="1280" filterUnits="userSpaceOnUse" color-interpolation-filters="sRGB">
<feFlood flood-opacity="0" result="BackgroundImageFix"/>
<feBlend mode="normal" in="SourceGraphic" in2="BackgroundImageFix" result="shape"/>
<feGaussianBlur stdDeviation="110" result="effect1_foregroundBlur_64599_149268"/>
</filter>
<filter id="filter1_f_64599_149268" x="387" y="389" width="530" height="530" filterUnits="userSpaceOnUse" color-interpolation-filters="sRGB">
<feFlood flood-opacity="0" result="BackgroundImageFix"/>
<feBlend mode="normal" in="SourceGraphic" in2="BackgroundImageFix" result="shape"/>
<feGaussianBlur stdDeviation="45" result="effect1_foregroundBlur_64599_149268"/>
</filter>
<filter id="filter2_f_64599_149268" x="472" y="474" width="360" height="360" filterUnits="userSpaceOnUse" color-interpolation-filters="sRGB">
<feFlood flood-opacity="0" result="BackgroundImageFix"/>
<feBlend mode="normal" in="SourceGraphic" in2="BackgroundImageFix" result="shape"/>
<feGaussianBlur stdDeviation="37.5" result="effect1_foregroundBlur_64599_149268"/>
</filter>
<filter id="filter3_f_64599_149268" x="473.125" y="449" width="357.75" height="410" filterUnits="userSpaceOnUse" color-interpolation-filters="sRGB">
<feFlood flood-opacity="0" result="BackgroundImageFix"/>
<feBlend mode="normal" in="SourceGraphic" in2="BackgroundImageFix" result="shape"/>
<feGaussianBlur stdDeviation="5" result="effect1_foregroundBlur_64599_149268"/>
</filter>
<filter id="filter4_f_64599_149268" x="353.998" y="362" width="597.448" height="583.438" filterUnits="userSpaceOnUse" color-interpolation-filters="sRGB">
<feFlood flood-opacity="0" result="BackgroundImageFix"/>
<feBlend mode="normal" in="SourceGraphic" in2="BackgroundImageFix" result="shape"/>
<feGaussianBlur stdDeviation="7.5" result="effect1_foregroundBlur_64599_149268"/>
</filter>
<filter id="filter5_if_64599_149268" x="284.707" y="539" width="463" height="487" filterUnits="userSpaceOnUse" color-interpolation-filters="sRGB">
<feFlood flood-opacity="0" result="BackgroundImageFix"/>
<feBlend mode="normal" in="SourceGraphic" in2="BackgroundImageFix" result="shape"/>
<feColorMatrix in="SourceAlpha" type="matrix" values="0 0 0 0 0 0 0 0 0 0 0 0 0 0 0 0 0 0 127 0" result="hardAlpha"/>
<feMorphology radius="10" operator="erode" in="SourceAlpha" result="effect1_innerShadow_64599_149268"/>
<feOffset dy="20"/>
<feGaussianBlur stdDeviation="10"/>
<feComposite in2="hardAlpha" operator="arithmetic" k2="-1" k3="1"/>
<feColorMatrix type="matrix" values="0 0 0 0 0.137255 0 0 0 0 0.988235 0 0 0 0 0.20817 0 0 0 1 0"/>
<feBlend mode="normal" in2="shape" result="effect1_innerShadow_64599_149268"/>
<feGaussianBlur stdDeviation="32" result="effect2_foregroundBlur_64599_149268"/>
</filter>
<filter id="filter6_f_64599_149268" x="339.707" y="260" width="603" height="569" filterUnits="userSpaceOnUse" color-interpolation-filters="sRGB">
<feFlood flood-opacity="0" result="BackgroundImageFix"/>
<feBlend mode="normal" in="SourceGraphic" in2="BackgroundImageFix" result="shape"/>
<feGaussianBlur stdDeviation="32" result="effect1_foregroundBlur_64599_149268"/>
</filter>
<filter id="filter7_f_64599_149268" x="292.193" y="466.185" width="506.406" height="530.266" filterUnits="userSpaceOnUse" color-interpolation-filters="sRGB">
<feFlood flood-opacity="0" result="BackgroundImageFix"/>
<feBlend mode="normal" in="SourceGraphic" in2="BackgroundImageFix" result="shape"/>
<feGaussianBlur stdDeviation="32" result="effect1_foregroundBlur_64599_149268"/>
</filter>
<filter id="filter8_f_64599_149268" x="605.607" y="341.212" width="440.93" height="614.976" filterUnits="userSpaceOnUse" color-interpolation-filters="sRGB">
<feFlood flood-opacity="0" result="BackgroundImageFix"/>
<feBlend mode="normal" in="SourceGraphic" in2="BackgroundImageFix" result="shape"/>
<feGaussianBlur stdDeviation="32" result="effect1_foregroundBlur_64599_149268"/>
</filter>
<filter id="filter9_f_64599_149268" x="284.706" y="278" width="764.001" height="760" filterUnits="userSpaceOnUse" color-interpolation-filters="sRGB">
<feFlood flood-opacity="0" result="BackgroundImageFix"/>
<feBlend mode="normal" in="SourceGraphic" in2="BackgroundImageFix" result="shape"/>
<feGaussianBlur stdDeviation="62.5" result="effect1_foregroundBlur_64599_149268"/>
</filter>
<filter id="filter10_f_64599_149268" x="393.603" y="332" width="548.716" height="620" filterUnits="userSpaceOnUse" color-interpolation-filters="sRGB">
<feFlood flood-opacity="0" result="BackgroundImageFix"/>
<feBlend mode="normal" in="SourceGraphic" in2="BackgroundImageFix" result="shape"/>
<feGaussianBlur stdDeviation="20" result="effect1_foregroundBlur_64599_149268"/>
</filter>
<filter id="filter11_f_64599_149268" x="331.852" y="287.876" width="641.457" height="731.409" filterUnits="userSpaceOnUse" color-interpolation-filters="sRGB">
<feFlood flood-opacity="0" result="BackgroundImageFix"/>
<feBlend mode="normal" in="SourceGraphic" in2="BackgroundImageFix" result="shape"/>
<feGaussianBlur stdDeviation="15" result="effect1_foregroundBlur_64599_149268"/>
</filter>
<radialGradient id="paint0_radial_64599_149268" cx="0" cy="0" r="1" gradientUnits="userSpaceOnUse" gradientTransform="translate(570.189 515.952) rotate(90) scale(110 5)">
<stop stop-color="#FFD028"/>
<stop offset="1" stop-color="#FFD028" stop-opacity="0"/>
</radialGradient>
<radialGradient id="paint1_radial_64599_149268" cx="0" cy="0" r="1" gradientUnits="userSpaceOnUse" gradientTransform="translate(730.189 793.08) rotate(90) scale(110 5)">
<stop stop-color="#FFD028"/>
<stop offset="1" stop-color="#FFD028" stop-opacity="0"/>
</radialGradient>
<radialGradient id="paint2_radial_64599_149268" cx="0" cy="0" r="1" gradientUnits="userSpaceOnUse" gradientTransform="translate(491.812 653.918) rotate(90) scale(110 5)">
<stop stop-color="#FFD028"/>
<stop offset="1" stop-color="#FFD028" stop-opacity="0"/>
</radialGradient>
<radialGradient id="paint3_radial_64599_149268" cx="0" cy="0" r="1" gradientUnits="userSpaceOnUse" gradientTransform="translate(811.812 653.918) rotate(90) scale(110 5)">
<stop stop-color="#FFD028"/>
<stop offset="1" stop-color="#FFD028" stop-opacity="0"/>
</radialGradient>
<radialGradient id="paint4_radial_64599_149268" cx="0" cy="0" r="1" gradientUnits="userSpaceOnUse" gradientTransform="translate(730.189 510.952) rotate(90) scale(110 5)">
<stop stop-color="#FFD028"/>
<stop offset="1" stop-color="#FFD028" stop-opacity="0"/>
</radialGradient>
<radialGradient id="paint5_radial_64599_149268" cx="0" cy="0" r="1" gradientUnits="userSpaceOnUse" gradientTransform="translate(570.189 788.08) rotate(90) scale(110 5)">
<stop stop-color="#FFD028"/>
<stop offset="1" stop-color="#FFD028" stop-opacity="0"/>
</radialGradient>
<radialGradient id="paint6_radial_64599_149268" cx="0" cy="0" r="1" gradientUnits="userSpaceOnUse" gradientTransform="translate(643.604 670.691) rotate(90) scale(249.846 208.354)">
<stop stop-color="#FFF171"/>
<stop offset="1" stop-color="#FFF171" stop-opacity="0"/>
</radialGradient>
<radialGradient id="paint7_radial_64599_149268" cx="0" cy="0" r="1" gradientUnits="userSpaceOnUse" gradientTransform="translate(652.922 554.569) rotate(90) scale(167.569 237.672)">
<stop stop-color="#FFF171"/>
<stop offset="1" stop-color="#FFF171" stop-opacity="0"/>
</radialGradient>
<radialGradient id="paint8_radial_64599_149268" cx="0" cy="0" r="1" gradientUnits="userSpaceOnUse" gradientTransform="translate(643.482 598.724) rotate(90) scale(193.371 188.2)">
<stop stop-color="#FFF171"/>
<stop offset="1" stop-color="#FFF171" stop-opacity="0"/>
</radialGradient>
<radialGradient id="paint9_radial_64599_149268" cx="0" cy="0" r="1" gradientUnits="userSpaceOnUse" gradientTransform="translate(652.723 697.095) rotate(90) scale(176.25 273.723)">
<stop stop-color="#FFF171"/>
<stop offset="1" stop-color="#FFF171" stop-opacity="0"/>
</radialGradient>
<radialGradient id="paint10_radial_64599_149268" cx="0" cy="0" r="1" gradientUnits="userSpaceOnUse" gradientTransform="translate(641.207 544.5) rotate(90) scale(220.5 237.5)">
<stop offset="0.94761" stop-color="#FFBF1C" stop-opacity="0"/>
<stop offset="1" stop-color="#FFBF1C"/>
</radialGradient>
<radialGradient id="paint11_radial_64599_149268" cx="0" cy="0" r="1" gradientUnits="userSpaceOnUse" gradientTransform="translate(545.396 731.317) rotate(90) scale(234.188 146.244)">
<stop offset="0.94761" stop-color="#FFBF1C" stop-opacity="0"/>
<stop offset="1" stop-color="#FFBF1C"/>
</radialGradient>
<linearGradient id="paint12_linear_64599_149268" x1="826.072" y1="404.813" x2="826.072" y2="892.587" gradientUnits="userSpaceOnUse">
<stop stop-color="white"/>
<stop offset="1" stop-color="white" stop-opacity="0"/>
</linearGradient>
<radialGradient id="paint13_radial_64599_149268" cx="0" cy="0" r="1" gradientUnits="userSpaceOnUse" gradientTransform="translate(669.134 482) rotate(90) scale(110 20)">
<stop stop-color="#FFD028"/>
<stop offset="1" stop-color="#FFD028" stop-opacity="0"/>
</radialGradient>
<radialGradient id="paint14_radial_64599_149268" cx="0" cy="0" r="1" gradientUnits="userSpaceOnUse" gradientTransform="translate(669.134 802) rotate(90) scale(110 20)">
<stop stop-color="#FFD028"/>
<stop offset="1" stop-color="#FFD028" stop-opacity="0"/>
</radialGradient>
<radialGradient id="paint15_radial_64599_149268" cx="0" cy="0" r="1" gradientUnits="userSpaceOnUse" gradientTransform="translate(529.397 569.32) rotate(90) scale(110 20)">
<stop stop-color="#FFD028"/>
<stop offset="1" stop-color="#FFD028" stop-opacity="0"/>
</radialGradient>
<radialGradient id="paint16_radial_64599_149268" cx="0" cy="0" r="1" gradientUnits="userSpaceOnUse" gradientTransform="translate(806.525 729.32) rotate(90) scale(110 20)">
<stop stop-color="#FFD028"/>
<stop offset="1" stop-color="#FFD028" stop-opacity="0"/>
</radialGradient>
<radialGradient id="paint17_radial_64599_149268" cx="0" cy="0" r="1" gradientUnits="userSpaceOnUse" gradientTransform="translate(806.525 569.32) rotate(90) scale(110 20)">
<stop stop-color="#FFD028"/>
<stop offset="1" stop-color="#FFD028" stop-opacity="0"/>
</radialGradient>
<radialGradient id="paint18_radial_64599_149268" cx="0" cy="0" r="1" gradientUnits="userSpaceOnUse" gradientTransform="translate(529.397 729.32) rotate(90) scale(110 20)">
<stop stop-color="#FFD028"/>
<stop offset="1" stop-color="#FFD028" stop-opacity="0"/>
</radialGradient>
</defs>
</svg>
